<svg xmlns="http://www.w3.org/2000/svg" width="1280" height="320" viewBox="0 0 1280 320" role="img" aria-label="Shield Slam">
  <defs>
    <linearGradient id="bg" x1="0" y1="0" x2="1" y2="1">
      <stop offset="0%" stop-color="#0D140D"/>
      <stop offset="55%" stop-color="#101A10"/>
      <stop offset="100%" stop-color="#0A120A"/>
    </linearGradient>
    <linearGradient id="glow" x1="0" y1="0" x2="0" y2="1">
      <stop offset="0%" stop-color="#3FBF3F" stop-opacity="0.22"/>
      <stop offset="100%" stop-color="#3FBF3F" stop-opacity="0"/>
    </linearGradient>
    <linearGradient id="plankA" x1="0" y1="0" x2="0" y2="1">
      <stop offset="0%" stop-color="#63DC63"/><stop offset="100%" stop-color="#2E8B2E"/>
    </linearGradient>
    <linearGradient id="plankB" x1="0" y1="0" x2="0" y2="1">
      <stop offset="0%" stop-color="#4FC64F"/><stop offset="100%" stop-color="#256F25"/>
    </linearGradient>
    <linearGradient id="rim" x1="0" y1="0" x2="1" y2="1">
      <stop offset="0%" stop-color="#C8C8C8"/><stop offset="50%" stop-color="#8F8F8F"/>
      <stop offset="100%" stop-color="#5E5E5E"/>
    </linearGradient>
    <radialGradient id="burst">
      <stop offset="0%"   stop-color="#FFFFFF" stop-opacity="1"/>
      <stop offset="35%"  stop-color="#E8FFE8" stop-opacity="0.85"/>
      <stop offset="100%" stop-color="#3FBF3F" stop-opacity="0"/>
    </radialGradient>
    <linearGradient id="handle" x1="0" y1="0" x2="1" y2="0">
      <stop offset="0%" stop-color="#8A5A32"/><stop offset="45%" stop-color="#B37C4A"/>
      <stop offset="100%" stop-color="#6B4423"/>
    </linearGradient>
    <linearGradient id="iron" x1="0" y1="0" x2="1" y2="1">
      <stop offset="0%" stop-color="#FBFBFB"/><stop offset="45%" stop-color="#DEDEDE"/>
      <stop offset="100%" stop-color="#9E9E9E"/>
    </linearGradient>
    <clipPath id="shieldClip">
      <path d="M20 0 H178 Q198 0 198 20 V118 Q198 180 99 234 Q0 180 0 118 V20 Q0 0 20 0 Z"/>
    </clipPath>
  </defs>

  <rect width="1280" height="320" fill="url(#bg)"/>
  <ellipse cx="180" cy="300" rx="440" ry="190" fill="url(#glow)"/>
  <rect x="0" y="0" width="1280" height="4" fill="#3FBF3F"/>
  <rect x="0" y="316" width="1280" height="4" fill="#1F7A1F"/>
  <g transform="translate(88,30) rotate(-5, 99, 117)">
    <path d="M20 0 H178 Q198 0 198 20 V118 Q198 180 99 234 Q0 180 0 118 V20 Q0 0 20 0 Z" fill="#256F25"/>
    <g clip-path="url(#shieldClip)">
      <rect x="0"   y="0" width="50" height="240" fill="url(#plankA)"/>
      <rect x="50"  y="0" width="49" height="240" fill="url(#plankB)"/>
      <rect x="99"  y="0" width="49" height="240" fill="url(#plankA)"/>
      <rect x="148" y="0" width="50" height="240" fill="url(#plankB)"/>
      <g stroke="#1B5A1B" stroke-width="3" opacity="0.9">
        <line x1="50"  y1="0" x2="50"  y2="240"/>
        <line x1="99"  y1="0" x2="99"  y2="240"/>
        <line x1="148" y1="0" x2="148" y2="240"/>
      </g>
      <g stroke="#1B5A1B" stroke-width="1.4" opacity="0.28">
        <line x1="25"  y1="0" x2="25"  y2="240"/>
        <line x1="75"  y1="0" x2="75"  y2="240"/>
        <line x1="124" y1="0" x2="124" y2="240"/>
        <line x1="173" y1="0" x2="173" y2="240"/>
      </g>
      <rect x="0" y="0" width="198" height="16" fill="#0A120A" opacity="0.28"/>
      <rect x="0" y="168" width="198" height="72" fill="#0A120A" opacity="0.22"/>
    </g>
    <!-- iron rim, and the corner plates the vanilla shield has -->
    <path d="M20 0 H178 Q198 0 198 20 V118 Q198 180 99 234 Q0 180 0 118 V20 Q0 0 20 0 Z"
          fill="none" stroke="url(#rim)" stroke-width="11"/>
    <path d="M20 0 H178 Q198 0 198 20 V118 Q198 180 99 234 Q0 180 0 118 V20 Q0 0 20 0 Z"
          fill="none" stroke="#EFEFEF" stroke-width="2.5" opacity="0.5"/>
    <g fill="url(#rim)" stroke="#4F4F4F" stroke-width="2">
      <rect x="2"   y="2"   width="17" height="17" rx="2"/>
      <rect x="179" y="2"   width="17" height="17" rx="2"/>
      <rect x="2"   y="196" width="15" height="15" rx="2"/>
      <rect x="181" y="196" width="15" height="15" rx="2"/>
    </g>
    <g fill="#DCDCDC" opacity="0.85">
      <rect x="60"  y="42" width="7" height="7"/>
      <rect x="131" y="42" width="7" height="7"/>
      <rect x="60"  y="112" width="7" height="7"/>
      <rect x="131" y="112" width="7" height="7"/>
      <rect x="60"  y="176" width="7" height="7"/>
      <rect x="131" y="176" width="7" height="7"/>
    </g>
    <!-- the fracture -->
    <path d="M99 46 L74 104 L120 130 L80 182 L104 226"
          fill="none" stroke="#08110A" stroke-width="11" stroke-linecap="round" stroke-linejoin="round"/>
    <path d="M99 46 L74 104 L120 130 L80 182 L104 226"
          fill="none" stroke="#1E5C1E" stroke-width="4" stroke-linecap="round" stroke-linejoin="round"/>
    <path d="M120 130 L168 150" fill="none" stroke="#08110A" stroke-width="7" stroke-linecap="round"/>
    <path d="M74 104 L36 118"  fill="none" stroke="#08110A" stroke-width="6" stroke-linecap="round"/>
  </g>
  <g>
    <circle cx="187" cy="147" r="72" fill="url(#burst)" opacity="0.75"/>
    <circle cx="187" cy="147" r="19" fill="#FFFFFF" opacity="0.95"/>
  </g>
  <g stroke="#FFFFFF" stroke-linecap="round" opacity="0.8">
    <line x1="213" y1="146" x2="256" y2="144" stroke-width="2.6" opacity="0.38"/>
    <line x1="209" y1="159" x2="254" y2="184" stroke-width="1.7" opacity="0.58"/>
    <line x1="201" y1="166" x2="231" y2="207" stroke-width="1.7" opacity="0.39"/>
    <line x1="184" y1="169" x2="174" y2="234" stroke-width="1.8" opacity="0.45"/>
    <line x1="169" y1="163" x2="112" y2="215" stroke-width="2.5" opacity="0.53"/>
    <line x1="161" y1="150" x2="123" y2="155" stroke-width="3.0" opacity="0.48"/>
    <line x1="161" y1="143" x2="120" y2="136" stroke-width="2.1" opacity="0.72"/>
    <line x1="168" y1="132" x2="121" y2="93" stroke-width="2.6" opacity="0.52"/>
    <line x1="184" y1="125" x2="179" y2="92" stroke-width="1.7" opacity="0.44"/>
    <line x1="199" y1="127" x2="225" y2="84" stroke-width="2.1" opacity="0.61"/>
    <line x1="209" y1="135" x2="251" y2="111" stroke-width="2.9" opacity="0.66"/>
  </g>
  <g>
    <path d="M 197.2 245.4 L 196.8 260.1 L 186.1 258.6 Z" fill="#6FCB6F" opacity="0.82"/>
    <path d="M 119.3 25.6 L 120.8 42.1 L 96.5 37.1 L 103.2 27.3 Z" fill="#3D8A3D" opacity="0.84"/>
    <path d="M 145.4 21.6 L 157.5 38.0 L 142.6 54.3 L 129.5 34.5 Z" fill="#3D8A3D" opacity="0.93"/>
    <path d="M 41.7 238.8 L 47.5 233.9 L 58.7 235.4 L 50.2 242.4 Z" fill="#357A35" opacity="0.82"/>
    <path d="M 214.5 207.3 L 219.9 196.7 L 231.6 206.3 L 222.5 211.7 Z" fill="#357A35" opacity="0.8"/>
    <path d="M 166.2 96.3 L 177.8 111.2 L 155.1 121.2 L 145.7 112.2 L 161.8 95.5 Z" fill="#357A35" opacity="0.85"/>
    <path d="M 19.8 119.7 L -3.0 121.2 L -9.8 110.5 L 14.0 104.5 Z" fill="#4A9E4A" opacity="0.9"/>
    <path d="M 162.1 186.1 L 175.9 199.2 L 160.6 212.2 L 149.7 194.1 Z" fill="#6FCB6F" opacity="0.96"/>
    <path d="M 131.8 108.7 L 151.7 100.5 L 173.7 117.9 L 143.7 126.4 Z" fill="#4A9E4A" opacity="0.84"/>
    <path d="M 243.8 28.3 L 250.5 23.2 L 262.8 30.6 Z" fill="#3D8A3D" opacity="0.93"/>
    <path d="M 188.0 74.8 L 154.9 79.4 L 146.5 67.8 L 178.5 54.2 Z" fill="#5FB85F" opacity="0.81"/>
    <path d="M 214.1 95.0 L 229.9 97.7 L 218.3 112.7 L 210.3 104.5 Z" fill="#4A9E4A" opacity="0.87"/>
    <path d="M 287.4 278.1 L 297.0 275.7 L 298.8 282.8 L 291.3 287.4 Z" fill="#6FCB6F" opacity="0.95"/>
    <path d="M 189.2 104.6 L 164.0 109.8 L 166.4 91.5 L 187.9 96.8 Z" fill="#4A9E4A" opacity="0.96"/>
    <path d="M 181.8 -11.2 L 189.4 -0.4 L 174.3 6.5 L 167.1 -5.8 Z" fill="#357A35" opacity="0.86"/>
    <path d="M 29.5 173.4 L 26.3 163.6 L 40.0 155.7 L 47.6 173.0 L 24.4 178.5 Z" fill="#357A35" opacity="0.88"/>
    <path d="M 49.3 185.4 L 60.8 173.2 L 74.2 191.6 L 55.5 193.1 L 47.6 185.7 Z" fill="#3D8A3D" opacity="0.86"/>
    <path d="M 105.7 194.5 L 111.9 180.9 L 130.2 183.2 Z" fill="#4A9E4A" opacity="0.92"/>
    <path d="M 250.8 145.4 L 251.9 124.0 L 271.1 124.6 L 266.3 142.6 Z" fill="#6FCB6F" opacity="0.79"/>
    <path d="M 81.9 123.3 L 75.9 115.2 L 84.3 113.0 Z" fill="#357A35" opacity="0.82"/>
    <path d="M 251.2 108.0 L 263.1 116.0 L 241.2 122.8 L 233.1 105.0 L 251.9 108.5 Z" fill="#3D8A3D" opacity="0.85"/>
    <path d="M 205.4 112.6 L 209.5 101.8 L 229.7 108.7 L 225.4 120.8 L 206.8 119.4 Z" fill="#3D8A3D" opacity="1.0"/>
    <path d="M 127.5 267.7 L 129.4 262.5 L 142.1 272.7 Z" fill="#4A9E4A" opacity="0.82"/>
    <path d="M 187.2 228.3 L 197.4 230.9 L 204.4 247.4 L 180.6 241.4 L 185.7 222.4 Z" fill="#6FCB6F" opacity="0.89"/>
    <path d="M 220.3 110.2 L 223.0 127.2 L 197.4 124.1 Z" fill="#6FCB6F" opacity="0.79"/>
    <path d="M 267.2 161.3 L 255.8 169.8 L 246.9 165.8 L 254.7 155.7 Z" fill="#3D8A3D" opacity="0.99"/>
    <path d="M 223.3 244.6 L 219.4 239.9 L 226.7 235.2 Z" fill="#5FB85F" opacity="0.79"/>
    <path d="M 269.7 264.2 L 294.5 262.7 L 300.9 281.9 L 275.2 280.4 L 280.2 261.8 Z" fill="#3D8A3D" opacity="0.93"/>
    <path d="M 68.6 123.8 L 89.0 140.5 L 64.8 144.9 L 58.2 132.7 Z" fill="#357A35" opacity="0.95"/>
    <path d="M 102.8 134.9 L 108.3 128.2 L 115.0 130.6 Z" fill="#5FB85F" opacity="0.94"/>
    <path d="M 194.9 84.8 L 176.3 100.7 L 167.1 87.4 Z" fill="#6FCB6F" opacity="0.96"/>
    <path d="M 236.1 210.4 L 219.9 193.5 L 241.8 191.0 L 249.9 204.4 L 232.4 208.5 Z" fill="#357A35" opacity="0.78"/>
    <path d="M 269.2 107.4 L 250.6 121.1 L 224.0 122.1 Z" fill="#5FB85F" opacity="0.82"/>
    <path d="M 211.2 248.3 L 218.4 243.6 L 224.0 252.1 L 221.1 257.5 Z" fill="#3D8A3D" opacity="0.78"/>
    <path d="M 101.1 176.3 L 99.2 165.8 L 110.0 164.9 L 106.6 173.2 Z" fill="#3D8A3D" opacity="0.78"/>
    <path d="M 105.5 198.0 L 119.7 190.7 L 126.5 214.3 L 101.1 215.8 Z" fill="#3D8A3D" opacity="0.98"/>
    <path d="M 101.0 269.9 L 114.9 254.2 L 135.3 256.8 L 131.6 281.6 L 109.8 271.5 Z" fill="#5FB85F" opacity="0.95"/>
    <path d="M 352.8 192.7 L 360.0 186.6 L 370.4 190.8 L 364.5 197.2 Z" fill="#3D8A3D" opacity="0.82"/>
    <path d="M 210.3 193.3 L 221.8 188.4 L 240.5 194.2 L 231.0 209.1 Z" fill="#4A9E4A" opacity="0.86"/>
    <path d="M 178.6 241.1 L 193.6 249.1 L 175.5 262.4 L 161.0 253.2 Z" fill="#6FCB6F" opacity="0.85"/>
    <path d="M 231.7 109.1 L 230.4 98.8 L 231.7 92.1 L 244.7 102.5 L 235.6 104.7 Z" fill="#6FCB6F" opacity="0.91"/>
    <path d="M 48.6 233.6 L 49.2 250.5 L 28.1 251.6 Z" fill="#6FCB6F" opacity="0.81"/>
    <path d="M 290.5 22.4 L 298.4 28.4 L 287.5 31.3 L 281.1 25.1 Z" fill="#5FB85F" opacity="0.95"/>
    <path d="M 269.3 198.1 L 235.9 197.0 L 252.9 171.0 Z" fill="#3D8A3D" opacity="0.81"/>
    <path d="M 119.8 154.9 L 112.1 162.5 L 97.8 157.9 L 107.1 152.8 Z" fill="#3D8A3D" opacity="0.76"/>
    <path d="M 141.8 235.0 L 114.6 228.3 L 124.8 213.6 Z" fill="#3D8A3D" opacity="0.93"/>
    <path d="M 172.2 77.1 L 197.3 65.5 L 206.8 74.2 L 188.0 85.3 L 181.7 79.2 Z" fill="#4A9E4A" opacity="0.97"/>
    <path d="M 38.7 224.3 L 62.6 237.7 L 51.1 254.6 L 22.1 235.5 Z" fill="#5FB85F" opacity="0.98"/>
    <path d="M 139.0 167.6 L 128.7 170.2 L 124.0 161.7 Z" fill="#6FCB6F" opacity="0.99"/>
    <path d="M 307.9 208.8 L 317.7 206.7 L 322.6 213.9 L 314.0 218.2 Z" fill="#6FCB6F" opacity="0.8"/>
    <path d="M 214.9 109.4 L 203.8 115.1 L 194.5 102.4 L 206.2 99.4 Z" fill="#357A35" opacity="0.83"/>
    <path d="M 61.7 79.5 L 46.5 83.5 L 27.7 62.4 L 53.2 52.3 L 68.6 80.5 Z" fill="#4A9E4A" opacity="0.78"/>
    <path d="M 206.3 20.0 L 202.9 11.0 L 214.1 7.0 L 216.0 12.8 Z" fill="#6E6E6E" opacity="0.9"/>
    <path d="M 265.3 248.5 L 256.6 253.1 L 256.2 243.1 L 261.8 240.7 Z" fill="#8F8F8F" opacity="0.9"/>
    <path d="M 190.2 -8.4 L 176.9 -9.2 L 178.9 -21.0 L 190.1 -21.5 Z" fill="#8F8F8F" opacity="0.9"/>
    <path d="M 154.5 313.6 L 144.6 318.6 L 140.6 311.4 L 148.8 308.2 Z" fill="#8F8F8F" opacity="0.9"/>
    <path d="M 294.1 8.6 L 288.4 1.3 L 297.5 0.2 L 299.9 6.8 Z" fill="#6E6E6E" opacity="0.9"/>
    <path d="M 210.1 2.3 L 216.3 2.3 L 220.3 9.9 L 209.3 11.1 Z" fill="#8F8F8F" opacity="0.9"/>
    <path d="M 255.9 4.6 L 252.5 -2.6 L 267.2 -4.4 L 267.3 7.8 Z" fill="#8F8F8F" opacity="0.9"/>
    <path d="M 123.2 79.9 L 134.6 81.2 L 129.3 90.4 L 119.2 87.1 Z" fill="#6E6E6E" opacity="0.9"/>
    <path d="M 111.8 55.4 L 109.0 62.3 L 96.7 59.9 L 103.6 52.1 Z" fill="#B4B4B4" opacity="0.9"/>
    <path d="M 40.9 108.4 L 25.3 109.5 L 18.2 97.9 L 38.3 97.0 Z" fill="#D0D0D0" opacity="0.9"/>
    <path d="M 186.6 -3.1 L 181.7 -14.2 L 196.4 -19.5 L 205.7 -8.4 Z" fill="#8F8F8F" opacity="0.9"/>
    <path d="M 55.4 16.6 L 70.4 16.5 L 69.7 27.0 L 59.8 26.7 Z" fill="#8F8F8F" opacity="0.9"/>
    <path d="M 345.1 183.9 L 332.9 190.4 L 326.4 177.9 L 339.2 170.3 Z" fill="#D0D0D0" opacity="0.9"/>
    <path d="M 96.5 226.0 L 78.1 221.6 L 82.4 208.6 L 99.2 215.7 Z" fill="#D0D0D0" opacity="0.9"/>
    <circle cx="226.5" cy="172.2" r="2.0" fill="#B4B4B4" opacity="0.35"/>
    <circle cx="27.7" cy="143.5" r="1.2" fill="#FFFFFF" opacity="0.37"/>
    <circle cx="209.4" cy="45.1" r="1.2" fill="#B4B4B4" opacity="0.58"/>
    <circle cx="80.5" cy="25.4" r="1.2" fill="#CFEFCF" opacity="0.34"/>
    <circle cx="265.4" cy="316.8" r="2.1" fill="#9FD89F" opacity="0.83"/>
    <circle cx="119.6" cy="19.9" r="1.6" fill="#FFFFFF" opacity="0.76"/>
    <circle cx="300.2" cy="287.3" r="1.7" fill="#9FD89F" opacity="0.75"/>
    <circle cx="181.2" cy="325.1" r="2.1" fill="#9FD89F" opacity="0.63"/>
    <circle cx="173.7" cy="169.9" r="1.5" fill="#FFFFFF" opacity="0.39"/>
    <circle cx="97.9" cy="-3.7" r="1.5" fill="#CFEFCF" opacity="0.73"/>
    <circle cx="190.9" cy="120.0" r="2.9" fill="#B4B4B4" opacity="0.83"/>
    <circle cx="52.0" cy="108.0" r="3.0" fill="#B4B4B4" opacity="0.36"/>
    <circle cx="179.4" cy="66.8" r="1.9" fill="#9FD89F" opacity="0.5"/>
    <circle cx="71.1" cy="258.7" r="2.0" fill="#CFEFCF" opacity="0.4"/>
    <circle cx="149.6" cy="246.9" r="1.8" fill="#FFFFFF" opacity="0.83"/>
    <circle cx="168.1" cy="5.5" r="1.6" fill="#B4B4B4" opacity="0.46"/>
    <circle cx="100.9" cy="186.2" r="1.2" fill="#CFEFCF" opacity="0.57"/>
    <circle cx="211.3" cy="149.7" r="1.8" fill="#FFFFFF" opacity="0.36"/>
    <circle cx="80.4" cy="128.4" r="1.7" fill="#FFFFFF" opacity="0.37"/>
    <circle cx="100.3" cy="78.5" r="1.4" fill="#9FD89F" opacity="0.82"/>
    <circle cx="156.1" cy="56.8" r="1.2" fill="#FFFFFF" opacity="0.38"/>
    <circle cx="123.0" cy="183.3" r="1.1" fill="#FFFFFF" opacity="0.65"/>
    <circle cx="68.5" cy="82.8" r="2.4" fill="#B4B4B4" opacity="0.58"/>
    <circle cx="189.0" cy="315.1" r="1.2" fill="#B4B4B4" opacity="0.59"/>
    <circle cx="209.3" cy="188.8" r="3.0" fill="#9FD89F" opacity="0.36"/>
    <circle cx="227.8" cy="187.6" r="2.4" fill="#B4B4B4" opacity="0.58"/>
    <circle cx="210.3" cy="102.8" r="1.7" fill="#CFEFCF" opacity="0.47"/>
    <circle cx="360.1" cy="141.8" r="2.1" fill="#B4B4B4" opacity="0.6"/>
    <circle cx="286.3" cy="29.3" r="2.1" fill="#B4B4B4" opacity="0.71"/>
    <circle cx="290.6" cy="310.7" r="1.6" fill="#CFEFCF" opacity="0.65"/>
    <circle cx="95.7" cy="269.6" r="2.6" fill="#CFEFCF" opacity="0.76"/>
    <circle cx="173.2" cy="256.9" r="2.0" fill="#FFFFFF" opacity="0.73"/>
    <circle cx="126.1" cy="312.2" r="3.0" fill="#CFEFCF" opacity="0.35"/>
    <circle cx="288.6" cy="294.4" r="2.9" fill="#9FD89F" opacity="0.41"/>
    <circle cx="184.8" cy="74.0" r="2.9" fill="#9FD89F" opacity="0.48"/>
    <circle cx="42.0" cy="256.7" r="3.0" fill="#B4B4B4" opacity="0.84"/>
    <circle cx="55.7" cy="165.6" r="1.1" fill="#9FD89F" opacity="0.31"/>
    <circle cx="108.0" cy="117.1" r="1.5" fill="#CFEFCF" opacity="0.64"/>
    <circle cx="132.6" cy="128.1" r="1.2" fill="#9FD89F" opacity="0.36"/>
    <circle cx="157.1" cy="182.2" r="1.2" fill="#CFEFCF" opacity="0.32"/>
    <circle cx="129.5" cy="14.1" r="1.2" fill="#FFFFFF" opacity="0.62"/>
    <circle cx="256.1" cy="314.6" r="2.2" fill="#B4B4B4" opacity="0.67"/>
    <circle cx="238.9" cy="180.1" r="1.3" fill="#CFEFCF" opacity="0.32"/>
    <circle cx="257.0" cy="37.2" r="1.7" fill="#CFEFCF" opacity="0.35"/>
    <circle cx="228.0" cy="25.6" r="1.7" fill="#FFFFFF" opacity="0.49"/>
    <circle cx="263.2" cy="155.1" r="1.7" fill="#FFFFFF" opacity="0.69"/>
    <circle cx="341.3" cy="69.0" r="2.4" fill="#FFFFFF" opacity="0.56"/>
    <circle cx="164.6" cy="130.6" r="2.0" fill="#CFEFCF" opacity="0.54"/>
    <circle cx="90.4" cy="258.1" r="2.2" fill="#CFEFCF" opacity="0.42"/>
    <circle cx="112.8" cy="117.0" r="2.0" fill="#FFFFFF" opacity="0.59"/>
    <circle cx="204.2" cy="-32.8" r="1.1" fill="#B4B4B4" opacity="0.57"/>
    <circle cx="121.5" cy="0.9" r="3.1" fill="#FFFFFF" opacity="0.63"/>
    <circle cx="136.9" cy="125.6" r="2.8" fill="#9FD89F" opacity="0.82"/>
    <circle cx="140.4" cy="147.4" r="2.4" fill="#CFEFCF" opacity="0.34"/>
    <circle cx="119.5" cy="91.0" r="1.9" fill="#CFEFCF" opacity="0.52"/>
    <circle cx="48.4" cy="206.0" r="1.9" fill="#B4B4B4" opacity="0.47"/>
  </g>
  <g transform="translate(1090,86) scale(1.14)">
    <g transform="rotate(38)">
      <rect x="-9" y="-18" width="18" height="212" rx="4" fill="url(#handle)" stroke="#3A2716" stroke-width="3"/>
      <rect x="-3" y="-14" width="4" height="198" fill="#C08A55" opacity="0.4"/>
      <rect x="-9" y="174" width="18" height="14" rx="3" fill="#000000" opacity="0.2"/>

      <!-- iron head: light face on the cutting edge, dark back, wood showing at the top -->
      <path d="M 18 -54 L -26 -60 L -36 -10 L 6 -6 L 22 -26 Z"
            fill="url(#iron)" stroke="#4A4A4A" stroke-width="3.5" stroke-linejoin="round"/>
      <path d="M 22 -26 L 6 -6 L 18 -2 L 30 -20 Z" fill="#7A7A7A" stroke="#4A4A4A" stroke-width="3" stroke-linejoin="round"/>
      <path d="M -26 -60 L -36 -10" fill="none" stroke="#FFFFFF" stroke-opacity="0.95" stroke-width="5"/>
      <path d="M -26 -60 L -36 -10" fill="none" stroke="#9A9A9A" stroke-width="1.5" transform="translate(4.5,0)"/>
      <path d="M 18 -54 L -26 -60" fill="none" stroke="#FFFFFF" stroke-opacity="0.5" stroke-width="3"/>
      <path d="M 4 -56 L 20 -52 L 26 -34 L 12 -38 Z" fill="#6B4423" stroke="#3A2716" stroke-width="3" stroke-linejoin="round"/>
      <path d="M -4 -50 L 12 -48 L 14 -12 L -2 -13 Z" fill="#5E5E5E" opacity="0.5"/>
    </g>
  </g>
  <text x="352" y="152" font-family="Verdana,Geneva,DejaVu Sans,sans-serif" font-size="76" font-weight="bold" fill="#FFFFFF" letter-spacing="2">SHIELD<tspan fill="#3FBF3F"> SLAM</tspan></text>
  <text x="356" y="196" font-family="Verdana,Geneva,DejaVu Sans,sans-serif" font-size="21" fill="#9FBF9F" letter-spacing="1">Break the shield. Land the smash.</text>

  <g font-family="Verdana,Geneva,DejaVu Sans,sans-serif" font-size="16">
    <rect x="354" y="222" width="196" height="34" rx="17" fill="#1A2A1A" stroke="#2F5F2F" stroke-width="2"/>
    <text x="452" y="244" text-anchor="middle" fill="#BFDFBF">Minecraft 1.21.11</text>
    <rect x="564" y="222" width="128" height="34" rx="17" fill="#1A2A1A" stroke="#2F5F2F" stroke-width="2"/>
    <text x="628" y="244" text-anchor="middle" fill="#BFDFBF">Fabric</text>
    <rect x="706" y="222" width="178" height="34" rx="17" fill="#1A2A1A" stroke="#2F5F2F" stroke-width="2"/>
    <text x="795" y="244" text-anchor="middle" fill="#BFDFBF">Client-side only</text>
  </g>
</svg>
